<mxfile host="65bd71144e">
    <diagram id="w00s3jOVh0fIfH8gdSZm" name="Page-1">
        <mxGraphModel dx="603" dy="436" grid="1" gridSize="10" guides="1" tooltips="1" connect="1" arrows="1" fold="1" page="1" pageScale="1" pageWidth="850" pageHeight="1100" math="0" shadow="0">
            <root>
                <mxCell id="0"/>
                <mxCell id="1" parent="0"/>
                <mxCell id="14" value="*" style="text;html=1;align=center;verticalAlign=middle;resizable=0;points=[];autosize=1;strokeColor=none;fillColor=none;" parent="1" vertex="1">
                    <mxGeometry x="252" y="105" width="30" height="30" as="geometry"/>
                </mxCell>
                <mxCell id="16" value="1" style="text;html=1;align=center;verticalAlign=middle;resizable=0;points=[];autosize=1;strokeColor=none;fillColor=none;" parent="1" vertex="1">
                    <mxGeometry x="510" y="105" width="30" height="30" as="geometry"/>
                </mxCell>
                <mxCell id="17" value="*" style="text;html=1;align=center;verticalAlign=middle;resizable=0;points=[];autosize=1;strokeColor=none;fillColor=none;" parent="1" vertex="1">
                    <mxGeometry x="400" y="72" width="30" height="30" as="geometry"/>
                </mxCell>
                <mxCell id="18" value="*" style="text;html=1;align=center;verticalAlign=middle;resizable=0;points=[];autosize=1;strokeColor=none;fillColor=none;" parent="1" vertex="1">
                    <mxGeometry x="630" y="400" width="30" height="30" as="geometry"/>
                </mxCell>
                <mxCell id="19" value="1" style="text;html=1;align=center;verticalAlign=middle;resizable=0;points=[];autosize=1;strokeColor=none;fillColor=none;" parent="1" vertex="1">
                    <mxGeometry x="510" y="285" width="30" height="30" as="geometry"/>
                </mxCell>
                <mxCell id="20" value="*" style="text;html=1;align=center;verticalAlign=middle;resizable=0;points=[];autosize=1;strokeColor=none;fillColor=none;" parent="1" vertex="1">
                    <mxGeometry x="630" y="210" width="30" height="30" as="geometry"/>
                </mxCell>
                <mxCell id="21" value="*" style="text;html=1;align=center;verticalAlign=middle;resizable=0;points=[];autosize=1;strokeColor=none;fillColor=none;" parent="1" vertex="1">
                    <mxGeometry x="460" y="285" width="30" height="30" as="geometry"/>
                </mxCell>
                <mxCell id="22" value="1" style="text;html=1;align=center;verticalAlign=middle;resizable=0;points=[];autosize=1;strokeColor=none;fillColor=none;" parent="1" vertex="1">
                    <mxGeometry x="630" y="165" width="30" height="30" as="geometry"/>
                </mxCell>
                <mxCell id="23" value="1" style="text;html=1;align=center;verticalAlign=middle;resizable=0;points=[];autosize=1;strokeColor=none;fillColor=none;" parent="1" vertex="1">
                    <mxGeometry x="630" y="360" width="30" height="30" as="geometry"/>
                </mxCell>
                <mxCell id="28" value="User" style="swimlane;fontStyle=0;childLayout=stackLayout;horizontal=1;startSize=30;horizontalStack=0;resizeParent=1;resizeParentMax=0;resizeLast=0;collapsible=1;marginBottom=0;whiteSpace=wrap;html=1;" parent="1" vertex="1">
                    <mxGeometry x="22" y="40" width="178" height="160" as="geometry"/>
                </mxCell>
                <mxCell id="29" value="&lt;div&gt;id!: number&lt;/div&gt;&lt;div&gt;name!: string&lt;/div&gt;&lt;div&gt;phoneNumber?: string&lt;/div&gt;&lt;div&gt;dateOfBirth?: Date&lt;/div&gt;&lt;div&gt;email?: string&lt;/div&gt;&lt;div&gt;consentToPush?: boolean&lt;/div&gt;&lt;div&gt;consentToEmail?: boolean&lt;/div&gt;&lt;div&gt;consentToCall?: boolean&lt;/div&gt;" style="text;strokeColor=none;fillColor=none;align=left;verticalAlign=middle;spacingLeft=4;spacingRight=4;overflow=hidden;points=[[0,0.5],[1,0.5]];portConstraint=eastwest;rotatable=0;whiteSpace=wrap;html=1;" parent="28" vertex="1">
                    <mxGeometry y="30" width="178" height="130" as="geometry"/>
                </mxCell>
                <mxCell id="40" value="Response" style="swimlane;fontStyle=0;childLayout=stackLayout;horizontal=1;startSize=30;horizontalStack=0;resizeParent=1;resizeParentMax=0;resizeLast=0;collapsible=1;marginBottom=0;whiteSpace=wrap;html=1;" parent="1" vertex="1">
                    <mxGeometry x="281" y="255" width="180" height="110" as="geometry"/>
                </mxCell>
                <mxCell id="41" value="&lt;div&gt;id!: number&lt;/div&gt;&lt;div&gt;questionnaireResponseId: number&lt;br&gt;&lt;/div&gt;&lt;div&gt;questionId!: number&lt;/div&gt;&lt;div&gt;value!: number&lt;/div&gt;" style="text;strokeColor=none;fillColor=none;align=left;verticalAlign=middle;spacingLeft=4;spacingRight=4;overflow=hidden;points=[[0,0.5],[1,0.5]];portConstraint=eastwest;rotatable=0;whiteSpace=wrap;html=1;" parent="40" vertex="1">
                    <mxGeometry y="30" width="180" height="80" as="geometry"/>
                </mxCell>
                <mxCell id="66" value="" style="edgeStyle=none;html=1;entryX=0.5;entryY=0;entryDx=0;entryDy=0;" parent="1" source="44" target="48" edge="1">
                    <mxGeometry relative="1" as="geometry"/>
                </mxCell>
                <mxCell id="44" value="Questionnaire" style="swimlane;fontStyle=0;childLayout=stackLayout;horizontal=1;startSize=30;horizontalStack=0;resizeParent=1;resizeParentMax=0;resizeLast=0;collapsible=1;marginBottom=0;whiteSpace=wrap;html=1;" parent="1" vertex="1">
                    <mxGeometry x="540" y="75" width="180" height="90" as="geometry"/>
                </mxCell>
                <mxCell id="45" value="&lt;div&gt;id!: number&lt;/div&gt;&lt;div&gt;name!: string&lt;/div&gt;&lt;div&gt;introMessage!: string&lt;/div&gt;" style="text;strokeColor=none;fillColor=none;align=left;verticalAlign=middle;spacingLeft=4;spacingRight=4;overflow=hidden;points=[[0,0.5],[1,0.5]];portConstraint=eastwest;rotatable=0;whiteSpace=wrap;html=1;" parent="44" vertex="1">
                    <mxGeometry y="30" width="180" height="60" as="geometry"/>
                </mxCell>
                <mxCell id="69" value="" style="edgeStyle=none;html=1;entryX=0.5;entryY=0;entryDx=0;entryDy=0;" parent="1" source="48" target="53" edge="1">
                    <mxGeometry relative="1" as="geometry"/>
                </mxCell>
                <mxCell id="48" value="Question" style="swimlane;fontStyle=0;childLayout=stackLayout;horizontal=1;startSize=30;horizontalStack=0;resizeParent=1;resizeParentMax=0;resizeLast=0;collapsible=1;marginBottom=0;whiteSpace=wrap;html=1;" parent="1" vertex="1">
                    <mxGeometry x="540" y="250" width="180" height="120" as="geometry"/>
                </mxCell>
                <mxCell id="49" value="&lt;div&gt;id!: number&lt;/div&gt;&lt;div&gt;questionnaireId!: number&lt;/div&gt;&lt;div&gt;label!: string&lt;/div&gt;&lt;div&gt;name!: string&lt;/div&gt;" style="text;strokeColor=none;fillColor=none;align=left;verticalAlign=middle;spacingLeft=4;spacingRight=4;overflow=hidden;points=[[0,0.5],[1,0.5]];portConstraint=eastwest;rotatable=0;whiteSpace=wrap;html=1;" parent="48" vertex="1">
                    <mxGeometry y="30" width="180" height="90" as="geometry"/>
                </mxCell>
                <mxCell id="53" value="Option" style="swimlane;fontStyle=0;childLayout=stackLayout;horizontal=1;startSize=30;horizontalStack=0;resizeParent=1;resizeParentMax=0;resizeLast=0;collapsible=1;marginBottom=0;whiteSpace=wrap;html=1;" parent="1" vertex="1">
                    <mxGeometry x="540" y="430" width="180" height="100" as="geometry"/>
                </mxCell>
                <mxCell id="56" value="&lt;div&gt;id!: number&lt;/div&gt;&lt;div&gt;questionId!: number&lt;/div&gt;&lt;div&gt;label!: string&lt;br&gt;&lt;/div&gt;&lt;div&gt;value!: number&lt;/div&gt;" style="text;strokeColor=none;fillColor=none;align=left;verticalAlign=middle;spacingLeft=4;spacingRight=4;overflow=hidden;points=[[0,0.5],[1,0.5]];portConstraint=eastwest;rotatable=0;whiteSpace=wrap;html=1;" parent="53" vertex="1">
                    <mxGeometry y="30" width="180" height="70" as="geometry"/>
                </mxCell>
                <mxCell id="71" value="" style="edgeStyle=none;html=1;" edge="1" parent="1" source="36">
                    <mxGeometry relative="1" as="geometry">
                        <mxPoint x="371" y="250" as="targetPoint"/>
                    </mxGeometry>
                </mxCell>
                <mxCell id="36" value="Questionnaire Response" style="swimlane;fontStyle=0;childLayout=stackLayout;horizontal=1;startSize=30;horizontalStack=0;resizeParent=1;resizeParentMax=0;resizeLast=0;collapsible=1;marginBottom=0;whiteSpace=wrap;html=1;" parent="1" vertex="1">
                    <mxGeometry x="282" y="60" width="178" height="120" as="geometry"/>
                </mxCell>
                <mxCell id="37" value="&lt;div&gt;id!: number&lt;/div&gt;&lt;div&gt;userId!: number&lt;/div&gt;&lt;div&gt;questionnaireId!: number&lt;/div&gt;&lt;div&gt;totalValue!: number&lt;/div&gt;&lt;div&gt;createdAt!: string&lt;/div&gt;" style="text;strokeColor=none;fillColor=none;align=left;verticalAlign=middle;spacingLeft=4;spacingRight=4;overflow=hidden;points=[[0,0.5],[1,0.5]];portConstraint=eastwest;rotatable=0;whiteSpace=wrap;html=1;" parent="36" vertex="1">
                    <mxGeometry y="30" width="178" height="90" as="geometry"/>
                </mxCell>
                <mxCell id="58" value="" style="edgeStyle=none;html=1;" parent="1" source="29" target="37" edge="1">
                    <mxGeometry relative="1" as="geometry"/>
                </mxCell>
                <mxCell id="59" value="1" style="text;html=1;align=center;verticalAlign=middle;resizable=0;points=[];autosize=1;strokeColor=none;fillColor=none;" parent="1" vertex="1">
                    <mxGeometry x="200" y="105" width="30" height="30" as="geometry"/>
                </mxCell>
                <mxCell id="61" value="*" style="text;html=1;align=center;verticalAlign=middle;resizable=0;points=[];autosize=1;strokeColor=none;fillColor=none;" parent="1" vertex="1">
                    <mxGeometry x="460" y="105" width="30" height="30" as="geometry"/>
                </mxCell>
                <mxCell id="65" value="" style="edgeStyle=none;html=1;" parent="1" source="45" target="37" edge="1">
                    <mxGeometry relative="1" as="geometry"/>
                </mxCell>
                <mxCell id="70" value="" style="edgeStyle=none;html=1;" parent="1" source="49" target="41" edge="1">
                    <mxGeometry relative="1" as="geometry"/>
                </mxCell>
                <mxCell id="73" value="*" style="text;html=1;align=center;verticalAlign=middle;resizable=0;points=[];autosize=1;strokeColor=none;fillColor=none;" vertex="1" parent="1">
                    <mxGeometry x="370" y="225" width="30" height="30" as="geometry"/>
                </mxCell>
                <mxCell id="74" value="1" style="text;html=1;align=center;verticalAlign=middle;resizable=0;points=[];autosize=1;strokeColor=none;fillColor=none;" vertex="1" parent="1">
                    <mxGeometry x="370" y="180" width="30" height="30" as="geometry"/>
                </mxCell>
            </root>
        </mxGraphModel>
    </diagram>
</mxfile>